<?xml version="1.0" encoding="UTF-8" standalone="no"?>
<!DOCTYPE svg PUBLIC "-//W3C//DTD SVG 1.1//EN" "http://www.w3.org/Graphics/SVG/1.1/DTD/svg11.dtd">
<svg width="100%" height="100%" viewBox="0 0 16 16" version="1.1" xmlns="http://www.w3.org/2000/svg" xmlns:xlink="http://www.w3.org/1999/xlink" xml:space="preserve" xmlns:serif="http://www.serif.com/" style="fill-rule:evenodd;clip-rule:evenodd;stroke-linejoin:round;stroke-miterlimit:2;">
    <g transform="matrix(0.5625,0,0,0.5625,7,7)">
        <path d="M8,0C0.361,0 0,0.362 0,8.007C0,15.65 0.327,15.979 7.928,16C11.378,16.009 13.008,15.878 13.855,15.524C15.65,14.774 16,13.55 16,8.007C16,0.362 15.639,-0 8,-0ZM3.966,2.016C5.756,2.016 6.752,4.041 5.652,5.441C4.807,6.516 3.319,6.614 2.364,5.658C1.011,4.305 2.017,2.016 3.966,2.016ZM8.053,5.754C9.843,5.754 10.839,7.778 9.739,9.178C8.894,10.252 7.406,10.352 6.451,9.397C5.098,8.043 6.104,5.754 8.053,5.754ZM12.114,9.723C13.21,9.76 14.257,10.572 14.257,11.837C14.257,13.625 11.688,14.713 10.544,13.409C9.64,12.379 9.566,11.506 10.305,10.566C10.781,9.96 11.457,9.701 12.114,9.723Z" style="fill:rgb(141,165,243);fill-rule:nonzero;"/>
    </g>
    <g>
        <path d="M6,11.794C6,11.699 6,11.603 6,11.505C6,11.409 6,11.316 6,11.225L6,4.756L11,3.328L11,6.001C11.162,6 11.328,6 11.5,6C12.054,6 12.552,6.003 13,6.014L13,2C12.999,1.452 12.548,1.002 12,1.002L11.971,1.002C11.888,1.004 11.805,1.017 11.725,1.039L4.725,3.039C4.297,3.162 4.001,3.555 4,4L4,9.551C3.836,9.517 3.668,9.5 3.5,9.5C2.129,9.5 1,10.629 1,12C1,13.372 2.129,14.5 3.5,14.5C4.838,14.499 5.949,13.425 5.996,12.088C5.999,12.059 6,12.029 6,12L6,11.794Z" style="fill:url(#_Linear1);fill-rule:nonzero;"/>
    </g>
    <defs>
        <linearGradient id="_Linear1" x1="0" y1="0" x2="1" y2="0" gradientUnits="userSpaceOnUse" gradientTransform="matrix(8.57253e-16,14,-14,8.57253e-16,8,1)"><stop offset="0" style="stop-color:rgb(255,95,95);stop-opacity:1"/><stop offset="0.5" style="stop-color:rgb(225,218,91);stop-opacity:1"/><stop offset="1" style="stop-color:rgb(95,255,151);stop-opacity:1"/></linearGradient>
    </defs>
</svg>
